<svg width="43" height="41" viewBox="0 0 43 41" fill="none" xmlns="http://www.w3.org/2000/svg">
<path d="M42.5087 40.5681H35.3216C33.9396 40.5681 32.6993 39.7263 32.1977 38.4489L27.364 26.1346H17.0221C16.7865 26.1346 16.601 25.8839 16.686 25.6657L18.1657 21.8763C18.2157 21.7482 18.3633 21.6797 18.5017 21.6797H40.3978C40.5359 21.6797 40.6607 21.7643 40.7102 21.8919L42.1894 25.6813C42.2744 25.8995 42.1122 26.1344 41.8769 26.1344H37.3618L42.8209 40.1148C42.9062 40.333 42.7438 40.5679 42.5085 40.5679L42.5087 40.5681Z" fill="#FF0000"/>
<path d="M25.4515 20.6823C25.3134 20.6823 25.1893 20.5981 25.1391 20.4703L21.9636 12.3796C21.9328 12.3023 21.9328 12.2165 21.9628 12.1387L24.4389 5.79833L26.6168 0.220337C26.7275 -0.0630291 27.1312 -0.0630291 27.2417 0.220337L35.1266 20.4107C35.1778 20.5417 35.0804 20.6825 34.939 20.6825H25.4513L25.4515 20.6823Z" fill="#FF0000"/>
<path d="M21.0297 11.8437L17.1871 21.6847L17.1617 21.7499L16.9604 22.2663L15.8823 25.027L15.6811 25.5426L15.4477 26.1394L10.6409 38.4485C10.1407 39.7294 8.89878 40.5731 7.51489 40.5731H0.336072C0.100064 40.5731 -0.0621165 40.3382 0.0229033 40.1201L11.1124 11.7676C11.2012 11.5402 11.4218 11.3906 11.6675 11.3906H20.7173C20.9525 11.3906 21.115 11.6255 21.0297 11.8437Z" fill="#FF0000"/>
<path d="M25.4736 0.453055L21.6758 10.1785C21.6255 10.3064 21.5014 10.3907 21.3633 10.3907H12.1378C11.9018 10.3907 11.7396 10.1558 11.8247 9.93768L14.8816 2.12324C15.3817 0.843718 16.6236 0 18.0068 0H25.1611C25.3971 0 25.5586 0.234918 25.4736 0.453055Z" fill="#FF0000"/>
</svg>
